<svg width="18" height="20" viewBox="0 0 18 20" fill="none" xmlns="http://www.w3.org/2000/svg">
<path d="M6.29688 4.375C6.29688 2.99609 7.41797 1.875 8.79688 1.875C10.1758 1.875 11.2969 2.99609 11.2969 4.375V6.25H6.29688V4.375ZM4.42188 6.25H1.92188C0.886719 6.25 0.046875 7.08984 0.046875 8.125V16.25C0.046875 18.3203 1.72656 20 3.79688 20H13.7969C15.8672 20 17.5469 18.3203 17.5469 16.25V8.125C17.5469 7.08984 16.707 6.25 15.6719 6.25H13.1719V4.375C13.1719 1.95703 11.2148 0 8.79688 0C6.37891 0 4.42188 1.95703 4.42188 4.375V6.25ZM5.35938 8.125C5.60802 8.125 5.84647 8.22377 6.02229 8.39959C6.1981 8.5754 6.29688 8.81386 6.29688 9.0625C6.29688 9.31114 6.1981 9.5496 6.02229 9.72541C5.84647 9.90123 5.60802 10 5.35938 10C5.11073 10 4.87228 9.90123 4.69646 9.72541C4.52065 9.5496 4.42188 9.31114 4.42188 9.0625C4.42188 8.81386 4.52065 8.5754 4.69646 8.39959C4.87228 8.22377 5.11073 8.125 5.35938 8.125ZM11.2969 9.0625C11.2969 8.81386 11.3956 8.5754 11.5715 8.39959C11.7473 8.22377 11.9857 8.125 12.2344 8.125C12.483 8.125 12.7215 8.22377 12.8973 8.39959C13.0731 8.5754 13.1719 8.81386 13.1719 9.0625C13.1719 9.31114 13.0731 9.5496 12.8973 9.72541C12.7215 9.90123 12.483 10 12.2344 10C11.9857 10 11.7473 9.90123 11.5715 9.72541C11.3956 9.5496 11.2969 9.31114 11.2969 9.0625Z" fill="#9CA3AF"/>
</svg>
