<svg width="19" height="20" viewBox="0 0 19 20" fill="none" xmlns="http://www.w3.org/2000/svg">
<path d="M18.918 6.50781C19.043 6.84766 18.9375 7.22656 18.668 7.46875L16.9766 9.00781C17.0195 9.33203 17.043 9.66406 17.043 10C17.043 10.3359 17.0195 10.668 16.9766 10.9922L18.668 12.5312C18.9375 12.7734 19.043 13.1523 18.918 13.4922C18.7461 13.957 18.5391 14.4023 18.3008 14.832L18.1172 15.1484C17.8594 15.5781 17.5703 15.9844 17.2539 16.3672C17.0234 16.6484 16.6406 16.7422 16.2969 16.6328L14.1211 15.9414C13.5977 16.3438 13.0195 16.6797 12.4024 16.9336L11.9141 19.1641C11.8359 19.5195 11.5625 19.8008 11.2031 19.8594C10.6641 19.9492 10.1094 19.9961 9.54298 19.9961C8.97657 19.9961 8.42188 19.9492 7.88282 19.8594C7.52345 19.8008 7.25001 19.5195 7.17188 19.1641L6.6836 16.9336C6.06642 16.6797 5.48829 16.3438 4.96485 15.9414L2.79298 16.6367C2.44923 16.7461 2.06642 16.6484 1.83595 16.3711C1.51954 15.9883 1.23048 15.582 0.972666 15.1523L0.789073 14.8359C0.550791 14.4062 0.34376 13.9609 0.171885 13.4961C0.046885 13.1562 0.152354 12.7773 0.421885 12.5352L2.11329 10.9961C2.07032 10.668 2.04689 10.3359 2.04689 10C2.04689 9.66406 2.07032 9.33203 2.11329 9.00781L0.421885 7.46875C0.152354 7.22656 0.046885 6.84766 0.171885 6.50781C0.34376 6.04297 0.550791 5.59766 0.789073 5.16797L0.972666 4.85156C1.23048 4.42188 1.51954 4.01562 1.83595 3.63281C2.06642 3.35156 2.44923 3.25781 2.79298 3.36719L4.96876 4.05859C5.4922 3.65625 6.07032 3.32031 6.68751 3.06641L7.17579 0.835938C7.25392 0.480469 7.52735 0.199219 7.88673 0.140625C8.42579 0.046875 8.98048 0 9.54688 0C10.1133 0 10.668 0.046875 11.207 0.136719C11.5664 0.195312 11.8399 0.476562 11.918 0.832031L12.4063 3.0625C13.0234 3.31641 13.6016 3.65234 14.125 4.05469L16.3008 3.36328C16.6445 3.25391 17.0274 3.35156 17.2578 3.62891C17.5742 4.01172 17.8633 4.41797 18.1211 4.84766L18.3047 5.16406C18.543 5.59375 18.75 6.03906 18.9219 6.50391L18.918 6.50781ZM9.54688 13.125C10.3757 13.125 11.1705 12.7958 11.7566 12.2097C12.3426 11.6237 12.6719 10.8288 12.6719 10C12.6719 9.1712 12.3426 8.37634 11.7566 7.79029C11.1705 7.20424 10.3757 6.875 9.54688 6.875C8.71808 6.875 7.92323 7.20424 7.33718 7.79029C6.75112 8.37634 6.42189 9.1712 6.42189 10C6.42189 10.8288 6.75112 11.6237 7.33718 12.2097C7.92323 12.7958 8.71808 13.125 9.54688 13.125Z" fill="#9CA3AF"/>
</svg>
