<svg width="28" height="24" viewBox="0 0 28 24" fill="none" xmlns="http://www.w3.org/2000/svg">
    <g clip-path="url(#clip0_7_1465)">
        <path
            d="M8.96118 6.63281C10.7987 5.08594 13.2784 3.75 16.2502 3.75C19.2221 3.75 21.7018 5.08594 23.5393 6.63281C25.3721 8.17969 26.6752 10.0266 27.3362 11.3109C27.5565 11.7422 27.5565 12.2531 27.3362 12.6844C26.6752 13.9688 25.3721 15.8156 23.5393 17.3625C21.7018 18.9141 19.2221 20.25 16.2502 20.25C13.2784 20.25 10.7987 18.9141 8.96118 17.3672C8.2018 16.725 7.53149 16.0312 6.95961 15.3469L2.75493 17.7938C2.16899 18.1359 1.42368 18.0422 0.940863 17.5641C0.458051 17.0859 0.359613 16.3453 0.697113 15.7547L2.84399 12L0.697113 8.24531C0.359613 7.65469 0.462738 6.91406 0.945551 6.43594C1.42836 5.95781 2.16899 5.86406 2.75961 6.20625L6.9643 8.65781C7.53618 7.97344 8.20649 7.27969 8.96586 6.6375L8.96118 6.63281ZM21.5002 12C21.5002 11.6022 21.3422 11.2206 21.0609 10.9393C20.7796 10.658 20.3981 10.5 20.0002 10.5C19.6024 10.5 19.2209 10.658 18.9396 10.9393C18.6583 11.2206 18.5002 11.6022 18.5002 12C18.5002 12.3978 18.6583 12.7794 18.9396 13.0607C19.2209 13.342 19.6024 13.5 20.0002 13.5C20.3981 13.5 20.7796 13.342 21.0609 13.0607C21.3422 12.7794 21.5002 12.3978 21.5002 12Z"
            fill="white" />
    </g>

</svg>