<svg width="21" height="18" viewBox="0 0 21 18" fill="none" xmlns="http://www.w3.org/2000/svg">
<path d="M2.17188 10.7343L9.23047 17.3242C9.52344 17.5976 9.91016 17.75 10.3125 17.75C10.7148 17.75 11.1016 17.5976 11.3945 17.3242L18.4531 10.7343C19.6406 9.62887 20.3125 8.07809 20.3125 6.457V6.23043C20.3125 3.49997 18.3398 1.17184 15.6484 0.722621C13.8672 0.425746 12.0547 1.00778 10.7812 2.28122L10.3125 2.74997L9.84375 2.28122C8.57031 1.00778 6.75781 0.425746 4.97656 0.722621C2.28516 1.17184 0.3125 3.49997 0.3125 6.23043V6.457C0.3125 8.07809 0.984375 9.62887 2.17188 10.7343Z" fill="#9CA3AF"/>
</svg>
