<svg width="24" height="20" viewBox="0 0 24 20" fill="none" xmlns="http://www.w3.org/2000/svg">
    <path
        d="M23.3203 9.98047C23.3203 10.6836 22.7344 11.2344 22.0703 11.2344H20.8203L20.8477 17.4922C20.8477 17.5977 20.8398 17.7031 20.8281 17.8086V18.4375C20.8281 19.3008 20.1289 20 19.2656 20H18.6406C18.5977 20 18.5547 20 18.5117 19.9961C18.457 20 18.4023 20 18.3477 20H17.0781H16.1406C15.2773 20 14.5781 19.3008 14.5781 18.4375V17.5V15C14.5781 14.3086 14.0195 13.75 13.3281 13.75H10.8281C10.1367 13.75 9.57812 14.3086 9.57812 15V17.5V18.4375C9.57812 19.3008 8.87891 20 8.01562 20H7.07812H5.83203C5.77344 20 5.71484 19.9961 5.65625 19.9922C5.60938 19.9961 5.5625 20 5.51562 20H4.89062C4.02734 20 3.32812 19.3008 3.32812 18.4375V14.0625C3.32812 14.0273 3.32812 13.9883 3.33203 13.9531V11.2344H2.07812C1.375 11.2344 0.828125 10.6875 0.828125 9.98047C0.828125 9.62891 0.945312 9.31641 1.21875 9.04297L11.2344 0.3125C11.5078 0.0390625 11.8203 0 12.0938 0C12.3672 0 12.6797 0.078125 12.9141 0.273438L22.8906 9.04297C23.2031 9.31641 23.3594 9.62891 23.3203 9.98047Z"
        fill="#F97316" />
</svg>