<svg width="24" height="24" viewBox="0 0 24 24" fill="none" xmlns="http://www.w3.org/2000/svg">
    <path
        d="M0 9C0 7.34531 1.34531 6 3 6C3.02344 6 3.05156 6 3.075 6C3.42188 4.28906 4.93594 3 6.75 3C7.45312 3 8.10938 3.19219 8.66719 3.525C9.29062 2.325 10.5516 1.5 12 1.5C13.4484 1.5 14.7094 2.325 15.3328 3.525C15.8906 3.19219 16.5469 3 17.25 3C19.0641 3 20.5781 4.28906 20.925 6C20.9484 6 20.9766 6 21 6C22.6547 6 24 7.34531 24 9C24 9.54844 23.8547 10.0594 23.5969 10.5H0.403125C0.145313 10.0594 0 9.54844 0 9ZM0 13.2844C0 12.5766 0.576562 12 1.28437 12H22.7156C23.4234 12 24 12.5766 24 13.2844C24 16.5891 21.9187 19.4109 18.9984 20.5078L18.9141 21.1875C18.8203 21.9375 18.1828 22.5 17.4234 22.5H6.57187C5.81719 22.5 5.175 21.9375 5.08125 21.1875L4.99687 20.5125C2.08125 19.4109 0 16.5891 0 13.2844Z"
        fill="white" />
</svg>