<svg width="24" height="24" viewBox="0 0 24 24" fill="none" xmlns="http://www.w3.org/2000/svg">
    <g clip-path="url(#clip0_7_1463)">
        <path
            d="M7.95481 0.0424005C6.88606 -0.0325995 5.99075 0.69865 5.72825 1.66896L5.17512 3.75021C5.19856 3.75021 5.22669 3.75021 5.25012 3.75021C13.5329 3.75021 20.2501 10.4674 20.2501 18.7502C20.2501 18.7737 20.2501 18.8018 20.2501 18.8252L22.3314 18.2721C23.3064 18.0143 24.0329 17.1143 23.9579 16.0455C23.3673 7.47678 16.5236 0.633025 7.95481 0.0424005ZM18.7407 19.2283C18.7454 19.069 18.7501 18.9096 18.7501 18.7502C18.7501 11.2924 12.7079 5.25021 5.25012 5.25021C5.09075 5.25021 4.93137 5.2549 4.772 5.25959L0.02356 23.058C-0.0467525 23.3158 0.0282475 23.5924 0.215748 23.7799C0.403248 23.9674 0.67981 24.0424 0.937623 23.9721L18.7407 19.2283ZM8.25012 9.75021C8.64795 9.75021 9.02948 9.90825 9.31078 10.1896C9.59209 10.4709 9.75012 10.8524 9.75012 11.2502C9.75012 11.648 9.59209 12.0296 9.31078 12.3109C9.02948 12.5922 8.64795 12.7502 8.25012 12.7502C7.8523 12.7502 7.47077 12.5922 7.18946 12.3109C6.90816 12.0296 6.75012 11.648 6.75012 11.2502C6.75012 10.8524 6.90816 10.4709 7.18946 10.1896C7.47077 9.90825 7.8523 9.75021 8.25012 9.75021ZM11.2501 15.7502C11.2501 15.3524 11.4082 14.9709 11.6895 14.6896C11.9708 14.4082 12.3523 14.2502 12.7501 14.2502C13.1479 14.2502 13.5295 14.4082 13.8108 14.6896C14.0921 14.9709 14.2501 15.3524 14.2501 15.7502C14.2501 16.148 14.0921 16.5296 13.8108 16.8109C13.5295 17.0922 13.1479 17.2502 12.7501 17.2502C12.3523 17.2502 11.9708 17.0922 11.6895 16.8109C11.4082 16.5296 11.2501 16.148 11.2501 15.7502ZM4.50012 18.0002C4.50012 17.6024 4.65816 17.2209 4.93946 16.9396C5.22077 16.6582 5.6023 16.5002 6.00012 16.5002C6.39795 16.5002 6.77948 16.6582 7.06078 16.9396C7.34209 17.2209 7.50012 17.6024 7.50012 18.0002C7.50012 18.398 7.34209 18.7796 7.06078 19.0609C6.77948 19.3422 6.39795 19.5002 6.00012 19.5002C5.6023 19.5002 5.22077 19.3422 4.93946 19.0609C4.65816 18.7796 4.50012 18.398 4.50012 18.0002Z"
            fill="white" />
    </g>
</svg>